<svg xmlns="http://www.w3.org/2000/svg" viewBox="0 0 400 300" width="406" height="306" class="illustration styles_illustrationTablet__1DWOa"><g id="_66_calling" data-name="#66_calling"><path d="M268.89,141.63l23.52-8.37c-1-1.41-14.18-32-26.58-38.1C255,88,234.89,89.32,212.16,90.91a70.21,70.21,0,0,0-21.31,4.44c-25.62,10.18-29.28,43.93-29.28,43.93l23.57,8.13s-3.83,45.85-7.44,69.82c0,0,29.53,17.39,93.91,6.73C271.61,224,269,148.41,268.89,141.63Z" fill="#0D2C5A"></path><polygon points="210.86 110.13 221.58 162.1 239.55 102.1 210.86 110.13" fill="#231f20"></polygon><path d="M221.58,162.6h0a.51.51,0,0,1-.47-.4l-10.72-52a.5.5,0,0,1,.35-.58l28.69-8a.49.49,0,0,1,.49.13.47.47,0,0,1,.12.49l-18,60A.5.5,0,0,1,221.58,162.6Zm-10.14-52.11,10.23,49.58,17.14-57.25Z" fill="#231f20"></path><path d="M234.24,39c-2-.28-3.35.46-5.16.9-2.38.58-1.71.64-3.83-.73-5-3.2-11.5-1.76-17.07.2s-11.5,4.35-17.17,2.73a11.14,11.14,0,0,0,7.56,3.62c-4.66,2.72-11.44.62-15.32,4.38A97,97,0,0,0,195.57,63,34.84,34.84,0,0,1,185.91,60a58.39,58.39,0,0,0,20.32,14.34c5.64,2.48,11.75,4.26,17.9,3.85,9.89-.67,20-8.44,20.78-18.65C245.44,52.57,242.79,40.19,234.24,39Z" fill="#fff"></path><path d="M222.33,78.78c-4.92,0-10.27-1.3-16.3-4a58.68,58.68,0,0,1-20.49-14.46.5.5,0,0,1,.58-.79,34.69,34.69,0,0,0,7.8,2.59,97.84,97.84,0,0,1-11.06-11.79.5.5,0,0,1,0-.67c2.26-2.19,5.43-2.5,8.5-2.8a23.22,23.22,0,0,0,5.39-1,11.49,11.49,0,0,1-6.15-3.55.48.48,0,0,1,0-.59.49.49,0,0,1,.56-.22c5.1,1.45,10.45-.45,15.63-2.29l1.24-.43c4.92-1.74,12.1-3.63,17.5-.15l.8.53c.86.59.85.58,2,.3l.68-.17c.47-.11.91-.24,1.34-.38a8.74,8.74,0,0,1,4-.53h0C242.89,39.7,246,51.81,245.4,59.61c-.84,11-11.68,18.46-21.24,19.11C223.56,78.76,222.94,78.78,222.33,78.78ZM187.9,61.43a58.68,58.68,0,0,0,18.53,12.48c6.64,2.92,12.42,4.16,17.66,3.81,11.75-.8,19.69-10.06,20.32-18.18.57-7.43-2.29-18.94-10.24-20.08h0a7.73,7.73,0,0,0-3.58.5c-.44.14-.91.28-1.4.4l-.66.16c-1.46.37-1.61.35-2.77-.44l-.78-.52c-5-3.24-11.9-1.41-16.63.25l-1.24.44c-4.73,1.68-9.62,3.41-14.44,2.69a10.55,10.55,0,0,0,5.93,2.25.5.5,0,0,1,.46.38.49.49,0,0,1-.24.55c-2.19,1.28-4.8,1.54-7.33,1.78-2.86.29-5.57.55-7.56,2.22a97.39,97.39,0,0,0,12,12.48.49.49,0,0,1,.13.58.5.5,0,0,1-.53.29A35.71,35.71,0,0,1,187.9,61.43Z" fill="#231f20"></path><path d="M211.57,92.89l-.71,17.24s6.94,9.75,17.58,5.24,11.11-13.27,11.11-13.27l-3.42-32.86s-8.94-3-9.47-21.26a55.66,55.66,0,0,1-28.12,8.76s-1.84,20.18.92,28.54S211.57,92.89,211.57,92.89Z" fill="#fff"></path><path d="M222.9,117.05c-7.62,0-12.39-6.55-12.45-6.63a.49.49,0,0,1-.09-.31l.69-16.7c-2.12,0-9.62-.55-12.07-8-2.75-8.36-1-27.91-.94-28.73a.5.5,0,0,1,.48-.46,55.56,55.56,0,0,0,27.85-8.66.49.49,0,0,1,.79.39c.27,9.23,2.75,14.39,4.78,17.11a10.77,10.77,0,0,0,4.35,3.69.5.5,0,0,1,.34.42L240,102.05c0,.17-.6,9.2-11.4,13.78A14.58,14.58,0,0,1,222.9,117.05ZM211.37,110c.89,1.18,7.29,9,16.88,4.93,10.23-4.34,10.79-12.75,10.8-12.84l-3.38-32.48c-1.61-.71-8.76-4.75-9.48-20.7A57.51,57.51,0,0,1,199,57.22c-.25,3-1.53,20.41.93,27.9,2.6,7.88,11.23,7.3,11.61,7.27a.5.5,0,0,1,.38.14.5.5,0,0,1,.15.38Z" fill="#231f20"></path><path d="M231.5,77.92a9,9,0,0,0,6.79-1,9.61,9.61,0,0,0,4.42-8.32,8.2,8.2,0,0,0-.6-3.57,4.28,4.28,0,0,0-2.61-2.39,6.84,6.84,0,0,0-4.27.69c-2,.8-2.15,1.91-3.42,3.43.14-.13.27-.55.4-.68" fill="#fff"></path><path d="M233.71,78.7a9.19,9.19,0,0,1-2.33-.3.5.5,0,1,1,.25-1,8.39,8.39,0,0,0,6.4-.92,9.07,9.07,0,0,0,4.18-7.9,7.56,7.56,0,0,0-.56-3.35,3.8,3.8,0,0,0-2.29-2.12c-1.21-.34-2.5.11-3.94.67a4.26,4.26,0,0,0-2.3,2,14.54,14.54,0,0,1-.87,1.21l-.09.1a.5.5,0,0,1-.73-.68l0,0s.07-.13.1-.2a1.69,1.69,0,0,1,.3-.48.76.76,0,0,1,.19-.12l.24-.34a5.23,5.23,0,0,1,2.76-2.4,7.33,7.33,0,0,1,4.58-.7,4.78,4.78,0,0,1,2.93,2.66,8.55,8.55,0,0,1,.65,3.8,10.07,10.07,0,0,1-4.66,8.73A9.4,9.4,0,0,1,233.71,78.7Z" fill="#231f20"></path><path d="M211.2,102a12.13,12.13,0,0,0,10.14-5c4.11-5.51,3.08-9.4,3.08-9.4s-5.34,5.57-12.85,5.31Z" fill="#231f20"></path><path d="M211.69,102.47c-.31,0-.49,0-.54,0a.5.5,0,0,1-.45-.52l.38-9.06a.48.48,0,0,1,.51-.48c7.2.22,12.41-5.1,12.47-5.15a.5.5,0,0,1,.48-.14.52.52,0,0,1,.36.36c0,.16,1,4.18-3.16,9.82A12.58,12.58,0,0,1,211.69,102.47Zm.36-9.07-.33,8.07a11.77,11.77,0,0,0,9.22-4.79c2.76-3.69,3.11-6.63,3.09-8.05a18.87,18.87,0,0,1-11.94,4.77Z" fill="#231f20"></path><path d="M213,65.53s-4.71,9.46-3.13,10.8,5.33-.17,5.33-.17" fill="#fff"></path><path d="M211.76,77.38a3.44,3.44,0,0,1-2.25-.67c-1.75-1.48,1.86-9.1,3-11.41a.51.51,0,0,1,.67-.22.5.5,0,0,1,.23.67c-2.19,4.4-4,9.55-3.26,10.19,1.11.94,3.86.14,4.83-.25a.51.51,0,0,1,.65.28.5.5,0,0,1-.28.65A10.86,10.86,0,0,1,211.76,77.38Z" fill="#231f20"></path><ellipse cx="219.91" cy="64" rx="1.45" ry="2.05" transform="translate(-8.57 48.02) rotate(-12.23)" fill="#231f20"></ellipse><ellipse cx="206.27" cy="65.84" rx="2.05" ry="1.45" transform="matrix(0.09, -1, 1, 0.09, 123.03, 265.72)" fill="#231f20"></ellipse><path d="M212.41,89.3a4.81,4.81,0,0,1-3.21-1.08c-2.91-2.59-2.63-7.68-2.62-7.89a.5.5,0,0,1,.44-.47c13.16-1.54,13.29-1.42,13.5-1.23a.52.52,0,0,1,.17.38h0a12.7,12.7,0,0,1-1.39,5.83,8.2,8.2,0,0,1-5.7,4.35A6.91,6.91,0,0,1,212.41,89.3Zm-4.84-8.49c0,1.21.19,4.79,2.27,6.65a4.27,4.27,0,0,0,3.58.75,7.22,7.22,0,0,0,5-3.83,11.51,11.51,0,0,0,1.25-4.87C217.94,79.63,211.76,80.32,207.57,80.81ZM220.19,79h0Zm0,0h0Z" fill="#231f20"></path><path d="M218.86,84.62c-2.37,4.42-7.27,5-9.33,3.23.68-1.72,1.78-3.46,3.57-3.95A8.41,8.41,0,0,1,218.86,84.62Z" fill="#231f20"></path><path d="M212.41,89.3a4.86,4.86,0,0,1-3.21-1.08.48.48,0,0,1-.13-.55c.92-2.36,2.24-3.79,3.9-4.25a9,9,0,0,1,6.1.75.44.44,0,0,1,.26.29.48.48,0,0,1,0,.39,8.2,8.2,0,0,1-5.7,4.35A6.91,6.91,0,0,1,212.41,89.3Zm-2.28-1.61a4.58,4.58,0,0,0,3.29.53,7.13,7.13,0,0,0,4.73-3.37,7.8,7.8,0,0,0-4.92-.47C212,84.73,210.92,85.84,210.13,87.69Z" fill="#231f20"></path><path d="M192.54,108.85c.12,1.05-7.4,38.56-7.4,38.56" fill="#231f20"></path><path d="M185.14,147.9H185a.48.48,0,0,1-.39-.58c3-14.84,7.4-37.31,7.4-38.43a.48.48,0,0,1,.44-.54.51.51,0,0,1,.55.45c.11,1.08-6.16,32.44-7.42,38.71A.48.48,0,0,1,185.14,147.9Z" fill="#231f20"></path><rect x="229.24" y="60.82" width="23.55" height="44.38" rx="3.33" transform="translate(9.5 -23.67) rotate(5.73)" fill="#231f20"></rect><path d="M247.54,106.45l-.39,0-16.8-1.69a3.83,3.83,0,0,1-3.43-4.19L230.69,63a3.84,3.84,0,0,1,4.19-3.43l16.8,1.69a3.83,3.83,0,0,1,3.43,4.2L251.34,103a3.83,3.83,0,0,1-3.8,3.45Zm-13-45.88a2.78,2.78,0,0,0-1.79.64,2.83,2.83,0,0,0-1,1.91l-3.77,37.53a2.84,2.84,0,0,0,2.54,3.1l16.8,1.69h0a2.83,2.83,0,0,0,3.1-2.54l3.77-37.52a2.85,2.85,0,0,0-2.54-3.11l-16.8-1.69Z" fill="#231f20"></path><path d="M292.41,133.26s6.91,14.47,8.24,20.15c4.13,17.6-11.67,40.86-30.81,29.16-6.28-3.83-10.49-10.35-13.28-17.15-5.95-14.49-8.93-30.54-10-46.12-.49-7,.81-18.88-7.82-21.82-2.78-1-6,2.07-6.65.81-1.09-2.17,2.76-7.26,8.83-4.48,0,0-4.22-4.35-8.56-3.12s-2.48-3.11.27-4.08c2.49-.88,8.29-.13,10.32,3.94,0,0-1.91-6.36-5.28-7.06s-4.49-1.6-4.29-2.61c.34-1.77,3.45-1.36,5.29-1s6.73,3.07,8,6.61c0,0-1.64-5.6-5.77-8.2-2.58-1.63-4.69-1.41-4.15-2.25s3.54-3,7.34-.23,8.83,11.63,8.83,11.63,0-6.12.54-6c2.91.73,4.42,7.85,4.82,10.15.94,5.45,2.69,9.25,5.22,14.33,4.71,9.49,10.31,22.78,14.53,32.47" fill="#fff"></path><path d="M280.18,186.23a20.33,20.33,0,0,1-10.6-3.23c-5.62-3.43-10.15-9.28-13.48-17.39-5.46-13.27-8.84-28.84-10.05-46.27-.08-1.13-.11-2.37-.15-3.68-.18-6.84-.4-15.34-7.33-17.71-1.33-.45-2.85.15-4.08.63s-2.37.93-2.86-.06-.1-2.79,1.17-4.1a6.59,6.59,0,0,1,5.76-1.85c-1.55-1-3.82-2-6.08-1.4s-3-.21-3.14-.78c-.44-1.37,1.16-3.56,3.11-4.25a10.66,10.66,0,0,1,8.83,1.66c-.85-1.66-2.12-3.49-3.73-3.82-2.18-.46-5-1.28-4.67-3.2.46-2.43,4.54-1.65,5.87-1.4a14.33,14.33,0,0,1,5.31,2.9,12,12,0,0,0-3.48-3.58,12.5,12.5,0,0,0-3-1.32c-.77-.25-1.28-.41-1.44-.86a.84.84,0,0,1,.13-.76,4.83,4.83,0,0,1,3-1.74,6.44,6.44,0,0,1,5,1.38c2.9,2.13,6.41,7.55,8,10.23.09-4.12.49-4.43.65-4.56a.73.73,0,0,1,.5-.11c3.25.82,4.79,8.28,5.18,10.55.93,5.39,2.65,9.12,5.17,14.2,3.8,7.65,8.13,17.66,11.94,26.48l2.61,6a.5.5,0,0,1-.26.66.51.51,0,0,1-.66-.26l-2.6-6c-3.81-8.82-8.13-18.8-11.92-26.44-2.56-5.15-4.31-8.94-5.26-14.47-.69-3.93-2.15-8.65-4.1-9.62a40.78,40.78,0,0,0-.27,5.37.5.5,0,0,1-.93.24c-.05-.08-5-8.77-8.7-11.46A5.44,5.44,0,0,0,239.47,75a4.13,4.13,0,0,0-2.27,1.19l.69.24a13.71,13.71,0,0,1,3.22,1.42c4.24,2.67,5.91,8.25,6,8.48a.5.5,0,0,1-1,.31c-1.16-3.35-5.89-6-7.57-6.27-2.86-.55-4.53-.34-4.71.6-.15.76,1.24,1.47,3.9,2,3.63.75,5.58,7.14,5.66,7.41a.5.5,0,0,1-.92.36c-1.88-3.76-7.36-4.52-9.71-3.69-1.57.56-2.72,2.31-2.5,3,.12.37.86.42,1.92.12,4.58-1.29,8.87,3.07,9.06,3.25a.51.51,0,0,1,0,.64.49.49,0,0,1-.61.17c-4.09-1.88-6.53.17-7.19.85-.94,1-1.36,2.21-1,2.95.19.13,1.08-.22,1.61-.43,1.3-.51,3.09-1.2,4.76-.63,7.59,2.59,7.83,11.48,8,18.62,0,1.3.07,2.53.15,3.64,1.2,17.32,4.56,32.79,10,46,3.25,7.91,7.65,13.6,13.08,16.92,6.85,4.18,13.93,4.09,19.93-.26,8.05-5.82,12.5-18.28,10.13-28.37-1.3-5.56-8.14-19.9-8.2-20a.5.5,0,1,1,.9-.44c.28.6,6.95,14.58,8.28,20.25,2.49,10.62-2,23.27-10.52,29.41A17.63,17.63,0,0,1,280.18,186.23Z" fill="#231f20"></path><circle cx="242.72" cy="67.4" r="1.87" fill="#fff"></circle><path d="M242.72,69.78a2.38,2.38,0,1,1,2.37-2.38A2.39,2.39,0,0,1,242.72,69.78Zm0-3.75a1.38,1.38,0,1,0,1.37,1.37A1.37,1.37,0,0,0,242.72,66Z" fill="#231f20"></path><path d="M286.39,158.76a.5.5,0,0,1-.46-.3l-9.22-21.71a.5.5,0,1,1,.92-.39l9.22,21.71a.5.5,0,0,1-.26.65A.48.48,0,0,1,286.39,158.76Z" fill="#231f20"></path><path d="M161.57,139.28l-4.89,24.27-16.85-19.81s-2.89-4.82-4.74-5.52c-2.2-.82-11.29-1.37-14.32-3.85s-4.68-3-5-1.1,8,6.88,8,6.88-6.62,1.93-8,1.38-4.76-7.69-6.14-7.69c-.71,0-2.2,1.51-.81,4.65-1.19-3-2.89-6.38-4.33-6.38s-1.37,2.53-.47,5.9c0,0-3.63-5.91-5-2.27-1.3,3.34,8.26,15.15,10.46,15.7s16.8-3.86,16.8-3.86,17.72,50.57,43.44,57.17c6.4,1.64,15.42-57.34,15.42-57.34Z" fill="#fff"></path><path d="M170,205.28a1.37,1.37,0,0,1-.4-.05c-10.8-2.77-21.46-13.3-31.67-31.29A183.91,183.91,0,0,1,126,148.2c-2.78.83-14.5,4.24-16.61,3.72-1.88-.46-7.31-6.92-9.69-11.52-1.15-2.22-1.52-3.81-1.12-4.84a2,2,0,0,1,1.62-1.5c1-.08,2.06.81,2.89,1.75-.29-1.78-.18-3,.31-3.65a1.41,1.41,0,0,1,1.15-.55h0c1,0,2.17,1.19,3.38,3.52a2.8,2.8,0,0,1,.39-.88,1.78,1.78,0,0,1,1.37-.91c1,0,2.06,1.63,3.76,4.29.88,1.37,2.08,3.24,2.56,3.43.73.3,4-.39,6.57-1.08-2.6-1.63-7.5-5-7.24-6.78a1.67,1.67,0,0,1,1-1.49c1-.38,2.39.3,4.8,2.27,1.94,1.59,6.7,2.38,10.18,3a28.37,28.37,0,0,1,4,.82c1.95.74,4.68,5.22,5,5.73l16.13,19,4.69-23.26a.52.52,0,0,1,.24-.34.53.53,0,0,1,.41,0l23.57,8.13a.5.5,0,0,1,.33.55c-.33,2.17-8.2,53.23-14.61,57.46A1.83,1.83,0,0,1,170,205.28Zm-43.71-58.2a.49.49,0,0,1,.47.34c.18.5,17.93,50.39,43.09,56.85a.78.78,0,0,0,.63-.16c4.8-3.17,11.29-38,14.11-56.37l-22.64-7.8-4.77,23.71a.48.48,0,0,1-.37.38.47.47,0,0,1-.5-.16l-16.85-19.81c-.83-1.36-3.16-4.85-4.54-5.37a28.22,28.22,0,0,0-3.8-.77c-3.79-.63-8.51-1.41-10.66-3.17-2.59-2.12-3.49-2.23-3.8-2.11s-.3.42-.34.7c-.14.95,3.9,4.07,7.75,6.38a.5.5,0,0,1-.12.91c-1.13.33-6.86,2-8.32,1.36-.74-.3-1.63-1.65-3-3.82-.89-1.4-2.39-3.74-2.93-3.83a1,1,0,0,0-.53.45,3.34,3.34,0,0,0,0,3c.08.18.15.36.22.54a.5.5,0,0,1-.92.39c-.09-.2-.16-.39-.23-.57-1.65-4.06-3-5.52-3.65-5.52h0a.42.42,0,0,0-.36.16c-.17.22-.65,1.25.38,5.11a.51.51,0,0,1-.29.59.5.5,0,0,1-.62-.2c-.85-1.38-2.46-3.32-3.38-3.21-.29,0-.55.32-.77.86s-.23,1.49,1.08,4c2.45,4.73,7.71,10.68,9,11,1.52.38,10.72-2.09,16.53-3.84A.4.4,0,0,1,126.28,147.08Z" fill="#231f20"></path><line x1="108.86" y1="138.49" x2="112.03" y2="142.99" fill="#fff"></line><path d="M112,143.49a.48.48,0,0,1-.41-.21l-3.17-4.5a.49.49,0,0,1,.12-.69.48.48,0,0,1,.69.12l3.17,4.49a.5.5,0,0,1-.12.7A.47.47,0,0,1,112,143.49Z" fill="#231f20"></path><path d="M104.06,138a52.75,52.75,0,0,0,3.62,5" fill="#fff"></path><path d="M107.68,143.49a.49.49,0,0,1-.37-.16,50.81,50.81,0,0,1-3.67-5.05.5.5,0,0,1,.14-.69.51.51,0,0,1,.7.15,53.16,53.16,0,0,0,3.56,4.91.49.49,0,0,1-.36.84Z" fill="#231f20"></path><polygon points="104.08 202.49 295.92 202.49 326.7 262.74 73.3 262.74 104.08 202.49" fill="#fff"></polygon><path d="M326.7,263.24H73.3a.5.5,0,0,1-.43-.24.5.5,0,0,1,0-.49l30.79-60.25a.48.48,0,0,1,.44-.27H295.92a.48.48,0,0,1,.44.27l30.79,60.25a.5.5,0,0,1,0,.49A.5.5,0,0,1,326.7,263.24Zm-252.58-1H325.88L295.61,203H104.39Z" fill="#d1d3d4"></path><ellipse cx="251.53" cy="228.29" rx="26.89" ry="8.1" fill="#fff"></ellipse><path d="M251.53,236.89c-13.46,0-27.39-3.22-27.39-8.6s13.93-8.59,27.39-8.59,27.4,3.21,27.4,8.59S265,236.89,251.53,236.89Zm0-16.19c-15.79,0-26.39,3.92-26.39,7.59s10.6,7.6,26.39,7.6,26.4-3.93,26.4-7.6S267.32,220.7,251.53,220.7Z" fill="#d1d3d4"></path><polygon points="121.82 229.41 122.09 232.48 191.18 242.58 190.48 239.36 121.82 229.41" fill="#fff"></polygon><path d="M191.18,243.08h-.08L122,233a.5.5,0,0,1-.42-.45l-.28-3.07a.53.53,0,0,1,.15-.41.54.54,0,0,1,.42-.13l68.66,9.94a.51.51,0,0,1,.42.39l.69,3.22a.49.49,0,0,1-.12.45A.5.5,0,0,1,191.18,243.08Zm-68.62-11,68,9.94-.47-2.18L122.37,230Z" fill="#231f20"></path><path d="M121.82,229.42s15.72-13.49,16.25-13.36,71.17,8.58,71.17,8.58l-18.76,14.72Z" fill="#fff"></path><path d="M190.48,239.86h-.07l-68.66-9.94a.49.49,0,0,1-.41-.36.47.47,0,0,1,.15-.51c15.93-13.66,16.38-13.55,16.69-13.47,1.06.18,70.42,8.49,71.12,8.57a.53.53,0,0,1,.43.37.5.5,0,0,1-.18.52l-18.76,14.72A.51.51,0,0,1,190.48,239.86ZM123,229.08l67.36,9.75L208,225c-13.72-1.64-66.42-8-69.85-8.42C137,217.23,128.62,224.25,123,229.08Z" fill="#231f20"></path><polygon points="191.18 242.58 209.52 227.71 209.24 224.64 190.48 239.36 191.18 242.58" fill="#fff"></polygon><path d="M191.18,243.08a.47.47,0,0,1-.17,0,.5.5,0,0,1-.32-.37l-.7-3.22a.51.51,0,0,1,.18-.5l18.77-14.71a.49.49,0,0,1,.8.35l.28,3.06a.55.55,0,0,1-.18.44L191.49,243A.51.51,0,0,1,191.18,243.08Zm-.15-3.52.46,2.12L209,227.49l-.17-1.89Z" fill="#231f20"></path><polygon points="121.82 229.41 108.54 184.93 181.36 197.35 190.48 239.36 121.82 229.41" fill="#fff"></polygon><path d="M190.48,239.86h-.07l-68.66-9.94a.5.5,0,0,1-.41-.35l-13.27-44.48a.52.52,0,0,1,.1-.48.5.5,0,0,1,.46-.16l72.82,12.41a.5.5,0,0,1,.4.39l9.12,42a.5.5,0,0,1-.49.61ZM122.21,229l67.63,9.79-8.9-41-71.69-12.22Z" fill="#231f20"></path><path d="M231.26,205.18l-.64.11a8,8,0,0,0-5,2.8,6.9,6.9,0,0,0-.17,7.27c2.86,5.15,9.83,6.57,15.18,7.07a4.89,4.89,0,0,0,2.25-.17,1.67,1.67,0,0,0,.22-3.17,5.48,5.48,0,0,0-1.79-.5c-3.32-.55-6.84-1-9.89-2.49-1.77-.9-4.25-3-3-5.18a4.25,4.25,0,0,1,1.88-1.6c3.06-1.46,6-.35,9,.55a1.76,1.76,0,0,0,.68.1,1.23,1.23,0,0,0,.88-1.36c-.1-1.32-1.42-2.19-2.65-2.67A14,14,0,0,0,231.26,205.18Z" fill="#fff"></path><path d="M241.56,223c-.33,0-.65,0-.95,0-8.16-.76-13.25-3.16-15.56-7.33a7.35,7.35,0,0,1,.2-7.81,8.53,8.53,0,0,1,5.27-3l.67-.11a14.25,14.25,0,0,1,7.26.79c1.05.4,2.84,1.34,3,3.09a1.71,1.71,0,0,1-1.31,1.89,2,2,0,0,1-.89-.12l-.79-.23c-2.68-.82-5.22-1.59-7.84-.33a3.75,3.75,0,0,0-1.67,1.39,1.91,1.91,0,0,0-.2,1.57,5.87,5.87,0,0,0,3,2.91,28.69,28.69,0,0,0,8.51,2.25l1.24.2a5.92,5.92,0,0,1,1.93.55,2.38,2.38,0,0,1,1.31,1.85,2.35,2.35,0,0,1-1.57,2.22A4.16,4.16,0,0,1,241.56,223Zm-10.22-17.31-.62.11a7.6,7.6,0,0,0-4.67,2.61,6.35,6.35,0,0,0-.13,6.73c2.14,3.85,7,6.08,14.78,6.81a4.48,4.48,0,0,0,2-.14,1.37,1.37,0,0,0,.94-1.22,1.38,1.38,0,0,0-.78-1,5.11,5.11,0,0,0-1.63-.45l-1.22-.19a29.33,29.33,0,0,1-8.81-2.35c-1.38-.7-3-2-3.47-3.51a2.89,2.89,0,0,1,.3-2.36,4.67,4.67,0,0,1,2.1-1.8c3-1.41,5.81-.55,8.56.28l.78.24a1.46,1.46,0,0,0,.48.08c.28,0,.47-.47.44-.82-.09-1.25-1.66-2-2.33-2.24a13.39,13.39,0,0,0-6.75-.74Z" fill="#231f20"></path><path d="M233.77,199.67s5,25.12,5.45,26.63S251.54,234,261,227.93l8.29-25.68Z" fill="#fff"></path><path d="M251.73,231.07a23.61,23.61,0,0,1-8.3-1.59c-2.08-.8-4.44-2.09-4.69-3-.41-1.51-5.25-25.64-5.46-26.66a.48.48,0,0,1,.12-.43.5.5,0,0,1,.41-.17l35.52,2.58a.5.5,0,0,1,.44.65l-8.29,25.68a.56.56,0,0,1-.21.27A17.32,17.32,0,0,1,251.73,231.07Zm-17.34-30.86c.79,3.95,5,24.62,5.31,26,.14.34,2,1.74,5.3,2.81s9.75,2.29,15.58-1.38l8-24.9Z" fill="#231f20"></path><ellipse cx="251.57" cy="200.4" rx="7.71" ry="17.82" transform="matrix(0.04, -1, 1, 0.04, 41.03, 443.55)" fill="#231f20"></ellipse><path d="M253,208.63l-1.73,0c-10.26-.42-18.15-4.35-18-8.95.1-2.27,2.14-4.29,5.76-5.68a33,33,0,0,1,12.88-1.77c10.26.42,18.15,4.35,18,9-.09,2.27-2.13,4.28-5.75,5.68A32.06,32.06,0,0,1,253,208.63Zm-2.8-15.47a30.68,30.68,0,0,0-10.78,1.74c-3.18,1.22-5,3-5.12,4.79-.16,3.9,7.63,7.53,17,7.91a32.11,32.11,0,0,0,12.48-1.7c3.18-1.23,5-3,5.12-4.79.16-3.91-7.63-7.53-17-7.92Z" fill="#231f20"></path><path d="M182.17,89s-6.45-.49-10.25-4.44a17.12,17.12,0,0,0,3.46-10.1c0-13.16-16.45-23.83-36.75-23.83s-36.76,10.67-36.76,23.83,16.46,23.83,36.76,23.83c11.29,0,21.4-3.31,28.14-8.51A49.35,49.35,0,0,0,182.17,89Z" fill="#fff"></path><path d="M138.63,98.76c-20.55,0-37.26-10.91-37.26-24.33S118.08,50.1,138.63,50.1,175.88,61,175.88,74.43a17.37,17.37,0,0,1-3.31,10c3.66,3.51,9.57,4,9.63,4a.49.49,0,0,1,.46.46.5.5,0,0,1-.38.53,50,50,0,0,1-15.36.81C159.83,95.67,149.53,98.76,138.63,98.76Zm0-47.66c-20,0-36.26,10.46-36.26,23.33s16.26,23.33,36.26,23.33c10.76,0,20.91-3.06,27.84-8.4a.48.48,0,0,1,.35-.1A52.81,52.81,0,0,0,179.36,89a16.38,16.38,0,0,1-7.8-4.12.49.49,0,0,1,0-.64,16.59,16.59,0,0,0,3.36-9.81C174.88,61.56,158.62,51.1,138.63,51.1Z" fill="#d1d3d4"></path></g></svg>