<svg width="68" height="68" viewBox="0 0 68 68" fill="none" xmlns="http://www.w3.org/2000/svg">
<path d="M24 33.1667C21.7 33.1667 19.8333 35.0333 19.8333 37.3333C19.8333 39.6333 21.7 41.5 24 41.5C26.3 41.5 28.1667 39.6333 28.1667 37.3333C28.1667 35.0333 26.3 33.1667 24 33.1667ZM44 33.1667C41.7 33.1667 39.8333 35.0333 39.8333 37.3333C39.8333 39.6333 41.7 41.5 44 41.5C46.3 41.5 48.1667 39.6333 48.1667 37.3333C48.1667 35.0333 46.3 33.1667 44 33.1667ZM34 0.666664C15.6 0.666664 0.666668 15.6 0.666668 34C0.666668 52.4 15.6 67.3333 34 67.3333C52.4 67.3333 67.3333 52.4 67.3333 34C67.3333 15.6 52.4 0.666664 34 0.666664ZM34 60.6667C19.3 60.6667 7.33333 48.7 7.33333 34C7.33333 33.0333 7.4 32.0667 7.5 31.1333C15.3667 27.6333 21.6 21.2 24.8667 13.2333C30.9 21.7667 40.8333 27.3333 52.0667 27.3333C54.6667 27.3333 57.1667 27.0333 59.5667 26.4667C60.2667 28.8333 60.6667 31.3667 60.6667 34C60.6667 48.7 48.7 60.6667 34 60.6667Z" fill="#0D2C5A"/>
</svg>
